Coordinates
version=1
nRows=17
nColumns=36
inDegrees=yes

Units are S.I. units (second, meters, Newtons, ...)
If the header above contains a line with 'inDegrees', this indicates whether rotational values are in degrees (yes) or radians (no).

endheader
time	pelvis_tilt	pelvis_list	pelvis_rotation	pelvis_tx	pelvis_ty	pelvis_tz	hip_flexion_r	hip_adduction_r	hip_rotation_r	knee_angle_r	knee_angle_r_beta	ankle_angle_r	subtalar_angle_r	mtp_angle_r	hip_flexion_l	hip_adduction_l	hip_rotation_l	knee_angle_l	knee_angle_l_beta	ankle_angle_l	subtalar_angle_l	mtp_angle_l	lumbar_extension	lumbar_bending	lumbar_rotation	arm_flex_r	arm_add_r	arm_rot_r	elbow_flex_r	pro_sup_r	arm_flex_l	arm_add_l	arm_rot_l	elbow_flex_l	pro_sup_l
     15.00000000	      1.20848230	     -8.35877762	      1.20143647	      0.51013098	      1.02737328	      0.86539857	     22.37683351	      9.14090938	     -5.74932606	     24.38860729	      0.42566150	      1.24649322	    -17.23389481	     -7.49999987	     -5.26892831	    -14.02513941	     -4.15834069	     45.04967071	      0.78626508	    -31.11927179	    -12.93720328	     -7.49999987	    -16.65380300	     14.16393577	      2.71841217	      3.75051428	    -10.86578628	    -12.41662835	     21.62796661	     79.72636555	      9.34293252	     -6.27317646	     -5.50973796	     34.01520814	     75.87121065
     15.01666670	      1.32342786	     -8.75348151	      1.52467295	      0.50830884	      1.03201758	      0.86632803	     21.02114831	      9.66338087	     -5.88804345	     24.18652349	      0.42213447	      1.81142398	    -17.74691885	     -7.49999987	     -3.70324233	    -14.30967892	     -3.37263589	     50.05404241	      0.87360784	    -33.46886317	    -11.20919843	     -7.49999987	    -16.18316776	     14.83843402	      2.21745989	      3.82251033	    -10.99528295	    -11.85461063	     21.96682467	     79.50223958	      8.32761310	     -5.95299746	     -5.37378444	     32.50601886	     75.20023210
     15.03333330	      1.20687822	     -9.16645365	      2.28427569	      0.50694596	      1.03666628	      0.86557780	     19.95356636	     10.08566201	     -6.08598238	     23.77821147	      0.41500808	      2.02606512	    -18.12510393	     -7.49999987	     -2.40965600	    -14.06566976	     -2.31203246	     54.73689665	      0.95533907	    -35.67408676	     -8.35991027	     -7.49999987	    -15.34037481	     15.73073736	      1.32604626	      3.97761581	    -11.10932916	    -11.63942482	     22.01072165	     79.10628102	      7.43781266	     -5.46184023	     -5.24833372	     30.73882529	     74.50614436
     15.05000000	      0.93908416	     -9.52285358	      3.47144802	      0.50631928	      1.03904276	      0.86426907	     18.99910322	     10.41441814	     -6.08645926	     23.26494932	      0.40604997	      2.64515366	    -17.92408412	     -7.49999987	     -1.00548681	    -13.67745945	     -1.17299223	     58.99314433	      1.02962460	    -36.60547749	     -5.28745598	     -7.49999987	    -14.39341742	     16.53304172	      0.31384646	      3.78957231	    -11.25115138	    -11.41926168	     22.45795544	     78.49445908	      6.60046038	     -4.98854390	     -4.94403092	     29.14522717	     73.68095959
     15.06666670	      1.05023468	     -9.31059228	      4.32248235	      0.50630725	      1.04099669	      0.86408715	     17.51067803	     10.34774038	     -5.49083567	     23.09628662	      0.40310625	      3.88827239	    -17.31566025	     -7.49999987	      0.92539799	    -13.06334870	     -0.03236106	     63.34524006	      1.10558300	    -33.58123980	     -3.60689853	     -7.49999987	    -14.54460334	     16.45645293	     -0.09554976	      3.61341051	    -11.26737267	    -11.47712705	     23.33038727	     77.02280942	      5.87855345	     -4.55425519	     -4.89568173	     28.09230854	     72.39472488
     15.08333330	      1.06525608	     -8.35671857	      4.84497922	      0.50733875	      1.04402474	      0.86567290	     15.98680588	      9.46578740	     -5.31323872	     23.24797814	      0.40575376	      6.20659807	    -15.15524912	     -7.49999987	      4.47931012	    -11.98919755	      2.01255690	     67.48899752	      1.17790522	    -26.25442651	     -3.99679494	     -7.49999987	    -15.04478140	     15.33138865	      0.04736086	      3.46058351	    -11.25754608	    -11.15112197	     24.15862836	     76.09991404	      5.62063037	     -4.40248390	     -4.23280907	     26.37769696	     71.43300185
     15.10000000	      1.15688340	     -7.22614675	      5.33997791	      0.50845347	      1.04790280	      0.86872132	     14.04800976	      8.41476161	     -5.52767116	     22.71241034	      0.39640634	      8.14698492	    -13.16180034	     -7.49999987	      8.31684504	    -10.95095652	      4.71940596	     69.36303179	      1.21061328	    -16.40909512	     -5.56827063	     -7.49999987	    -15.77413984	     13.89812472	     -0.23199882	      3.56555182	    -11.00219350	    -11.25526989	     25.43882580	     75.55591683	      4.82811144	     -4.61461164	     -4.28588262	     26.01927197	     70.96814053
     15.11666670	      1.48756563	     -6.14170475	      5.43865402	      0.50764718	      1.05204529	      0.87241766	     11.57467666	      7.46552778	     -6.08477541	     21.40560740	      0.37359833	      9.84505485	    -10.58457217	     -7.49999987	     11.11145599	    -10.03087815	      6.85239070	     68.52260506	      1.19594507	     -8.43863836	     -7.93930944	     -7.49999987	    -16.40960424	     12.37506124	     -0.55787791	      4.06410897	    -10.73635119	    -11.21372862	     26.38145191	     75.43633495	      4.17547190	     -4.92225042	     -4.41961887	     24.99966673	     70.74565277
     15.13333330	      1.92934774	     -5.27727855	      5.13660362	      0.50411792	      1.05482096	      0.87601717	      8.94299709	      6.80919478	     -6.66731465	     19.56265108	      0.34143267	     10.84949244	     -8.39546568	     -7.49999987	     12.81507763	     -9.39414681	      7.70060923	     65.91860081	      1.15049662	     -4.58986446	     -9.85656145	     -7.49999987	    -16.97085312	     11.01014646	     -0.55138913	      4.49801184	    -10.57657872	    -10.96364689	     27.52164513	     75.56240137	      3.42322875	     -5.17998178	     -4.62080561	     24.31497222	     70.65312085
     15.15000000	      2.25266979	     -4.61551000	      4.67134677	      0.49855732	      1.05613492	      0.87880042	      6.71926460	      6.32148023	     -7.28575664	     17.74221568	      0.30966008	     11.37900178	     -6.57294027	     -7.49999987	     14.14627285	     -8.93806856	      7.33538452	     63.06393237	      1.10067326	     -3.78256378	    -11.04580595	     -7.49999987	    -17.37526671	      9.89973134	     -0.34291974	      4.79016189	    -10.51362706	    -10.64223958	     29.16729604	     75.52129563	      2.61505081	     -5.33321683	     -4.83901607	     24.01866159	     70.45622376
     15.16666670	      2.10753419	     -4.03939433	      4.32993962	      0.49310652	      1.05672349	      0.88071004	      5.37610627	      5.84232020	     -7.76859082	     16.27394874	      0.28403399	     11.74720683	     -5.27303989	     -7.49999987	     15.95306409	     -8.48094315	      6.22398800	     60.51059070	      1.05610904	     -3.77535020	    -11.54496725	     -7.49999987	    -17.35300592	      8.97789866	     -0.04484440	      4.96622571	    -10.48367608	    -10.37695154	     30.89488476	     75.45798632	      1.78238920	     -5.44755470	     -4.87368880	     23.91287115	     70.34994492
     15.18333330	      2.13496475	     -3.40813753	      4.32170038	      0.49000344	      1.05782201	      0.88157248	      4.04794459	      5.19778042	     -8.55681991	     15.10502934	      0.26363250	     12.52024648	     -3.32611985	     -7.49999987	     17.62278096	     -7.86538523	      4.88636045	     58.06321972	      1.01339436	     -3.77372475	    -12.20407749	     -7.49999987	    -17.64179187	      8.18632124	      0.45965037	      4.74053091	    -10.65781816	    -10.00803729	     33.64861468	     75.33696762	      1.21894352	     -5.47724389	     -4.65891883	     23.77444909	     70.29206741
     15.20000000	      1.76254340	     -2.80520046	      4.33040928	      0.48964154	      1.05831935	      0.88233061	      3.22441330	      4.61751230	     -8.55899114	     14.17237892	      0.24735468	     12.78219477	     -2.45636445	     -7.49999987	     19.58012078	     -7.33543680	      3.33374445	     55.41438766	      0.96716352	     -2.89301412	    -12.19623623	     -7.49999987	    -17.33546308	      7.39758928	      0.73383699	      4.89320872	    -10.61460660	     -9.89970667	     35.14770166	     75.23951145	      0.31185560	     -5.60571713	     -4.48458771	     23.53571912	     70.27725457
     15.21666670	      1.50913340	     -2.17460359	      4.45315475	      0.48956123	      1.05821596	      0.88244403	      2.23939801	      3.99112444	     -8.57614494	     13.37846914	      0.23349834	     13.49919741	     -1.26400753	     -7.49999987	     21.05319959	     -6.78396863	      1.94245553	     52.31511254	      0.91307096	     -1.55586340	    -11.92157770	     -7.49999987	    -17.13837579	      6.63306888	      1.16208189	      4.61418474	    -10.78233713	     -9.66075182	     37.29006284	     75.13905796	     -0.59742362	     -5.69177484	     -4.17702281	     23.34019511	     70.27825994
     15.23333330	      1.26567634	     -1.73406847	      4.62478822	      0.48747929	      1.05848357	      0.88201513	      1.11716474	      3.60532906	     -8.57777207	     12.38694846	      0.21619303	     13.73021778	     -0.43119777	     -7.49999987	     22.13123395	     -6.45060142	      0.78960353	     48.74960057	      0.85084104	     -0.15580467	    -11.45428819	     -7.49999987	    -16.84244812	      6.07695519	      1.59580031	      4.38540353	    -10.96925305	     -9.43380450	     38.88672970	     75.14431799	     -1.47606285	     -5.78291231	     -3.92908695	     23.04489503	     70.32623869
     15.25000000	      1.51485446	     -1.47631260	      4.79611926	      0.48291321	      1.05871827	      0.88166757	     -0.53198413	      3.46426226	     -8.63778633	     11.31767288	      0.19753066	     14.22640216	      0.28966804	     -7.49999987	     22.48807737	     -6.37882554	     -0.25282241	     44.91976333	      0.78399777	      1.02448279	    -10.75804453	     -7.49999987	    -17.35898290	      5.77935922	      3.05816902	      3.23979477	    -11.75905059	     -9.24611383	     42.17671856	     73.97283599	     -1.73281816	     -5.88183028	     -2.11038796	     23.03594217	     70.00456607
     15.26666670	      1.32456397	     -1.34302753	      5.01749817	      0.47749430	      1.05737505	      0.88228189	     -1.56453132	      3.43111202	     -8.66162529	     10.35428076	      0.18071629	     14.51702221	      0.34113624	     -7.49999987	     23.35049961	     -6.40238420	     -1.25146394	     41.06096285	      0.71664900	      1.95023245	     -9.71882995	     -7.49999987	    -17.30307297	      5.58253532	      3.32506423	      3.26218269	    -12.21779021	     -8.36002383	     43.65453505	     73.47997908	     -2.44677425	     -6.04570852	     -1.45522874	     23.17806674	     69.54339539
